<svg xmlns="http://www.w3.org/2000/svg" xml:space="preserve" width="1500" height="1500" data-id="lg_WvXkgFjPSSas61Hncw" data-version="1" viewBox="0 0 1500 1500"><path fill="#fff" stroke="transparent" d="M0 0h1500v1500H0z"/><g data-padding="20"><path fill="#39cccc" d="M748.477 665.868a79.86 79.86 0 1 0 0 159.72 79.86 79.86 0 1 0 0-159.72m72.27-331.074c0 37.384-30.369 253.712-67.752 253.712s-67.656-216.424-67.656-253.712a67.753 67.753 0 0 1 135.312 0m-135.314 823.6c0-37.48 30.273-253.712 67.656-253.712s67.657 216.327 67.657 253.712a67.656 67.656 0 1 1-135.311 0m406.994-654.266c-26.909 25.946-203.161 155.013-229.301 128.199s108.116-199.22 134.928-225.265a67.656 67.656 0 0 1 94.18 97.064M410.1 987.523c26.909-25.948 203.161-155.013 229.204-128.201 25.948 26.909-108.114 199.222-134.928 225.265a67.656 67.656 0 1 1-94.18-97.064m570.658 107.059C955.58 1067 831.51 887.192 858.995 861.917s196.242 113.497 221.517 140.982a67.675 67.675 0 0 1-99.658 91.586m-475.132-688.48c26.043 26.716 155.59 202.778 128.777 228.725-26.716 26.236-199.51-107.347-225.65-134.256a67.656 67.656 0 1 1 96.873-94.468m-169.91 269.952c37.48 0 253.711 30.271 253.711 67.656S373.197 811.27 335.812 811.27a67.656 67.656 0 0 1 0-135.312m825.33 137.427c-37.48 0-253.71-30.272-253.71-67.657s216.326-67.656 253.71-67.656a67.656 67.656 0 1 1 0 135.313"/><path fill="transparent" stroke="transparent" stroke-width="1.796" d="M250 252.746h996.954v991.566H249.999z"/></g></svg>